<?xml version="1.0" encoding="UTF-8" standalone="no"?>
<!-- Created with Inkscape (http://www.inkscape.org/) -->

<svg
   xmlns:dc="http://purl.org/dc/elements/1.1/"
   xmlns:cc="http://creativecommons.org/ns#"
   xmlns:rdf="http://www.w3.org/1999/02/22-rdf-syntax-ns#"
   xmlns:svg="http://www.w3.org/2000/svg"
   xmlns="http://www.w3.org/2000/svg"
   xmlns:sodipodi="http://sodipodi.sourceforge.net/DTD/sodipodi-0.dtd"
   xmlns:inkscape="http://www.inkscape.org/namespaces/inkscape"
   width="400"
   height="150"
   viewBox="0 0 105.83333 39.6875"
   version="1.1"
   id="svg8"
   inkscape:export-filename="/home/peach/public_html/sotb-six/src/assets/img/sotb-logo.png"
   inkscape:export-xdpi="120.86"
   inkscape:export-ydpi="120.86"
   inkscape:version="0.92.1 r"
   sodipodi:docname="sotb-logo-padded.svg">
  <defs
     id="defs2" />
  <sodipodi:namedview
     id="base"
     pagecolor="#ffffff"
     bordercolor="#666666"
     borderopacity="1.0"
     inkscape:pageopacity="0.0"
     inkscape:pageshadow="2"
     inkscape:zoom="1.4"
     inkscape:cx="53.60202"
     inkscape:cy="-106.98108"
     inkscape:document-units="mm"
     inkscape:current-layer="layer1"
     showgrid="false"
     fit-margin-top="0"
     fit-margin-left="0"
     fit-margin-right="0"
     fit-margin-bottom="0"
     units="px"
     inkscape:window-width="3200"
     inkscape:window-height="1687"
     inkscape:window-x="0"
     inkscape:window-y="64"
     inkscape:window-maximized="1" />
  <metadata
     id="metadata5">
    <rdf:RDF>
      <cc:Work
         rdf:about="">
        <dc:format>image/svg+xml</dc:format>
        <dc:type
           rdf:resource="http://purl.org/dc/dcmitype/StillImage" />
        <dc:title></dc:title>
      </cc:Work>
    </rdf:RDF>
  </metadata>
  <g
     inkscape:label="Layer 1"
     inkscape:groupmode="layer"
     id="layer1"
     transform="translate(-3.9687552,2.1076793)">
    <g
       id="g4527"
       transform="matrix(0.26458333,0,0,0.26458333,10.583341,1.8610707)">
      <g
         id="g4525">
        <g
           id="g4487">
          <rect
             id="rect4485"
             height="91.5"
             width="70.699997"
             y="11.5"
             x="0"
             style="fill:#a8801a" />
        </g>
        <g
           id="g4491">
          <rect
             id="rect4489"
             height="101.5"
             width="70.699997"
             y="6.4000001"
             x="91.400002"
             style="fill:#a13e17" />
        </g>
        <g
           id="g4495">
          <rect
             id="rect4493"
             height="112.4"
             width="70.699997"
             y="1.2"
             x="182.8"
             style="fill:#9f1833" />
        </g>
        <g
           id="g4499">
          <rect
             id="rect4497"
             height="70.300003"
             width="70.699997"
             y="22.1"
             x="274.20001"
             style="fill:#51163d" />
        </g>
        <g
           id="g4503">
          <rect
             id="rect4501"
             height="91.5"
             width="70.699997"
             y="16.6"
             x="5.0999999"
             style="fill:#dda700" />
        </g>
        <path
           id="path4505"
           d="m 42.5,58.8 c -4.1,-1.7 -7.7,-3.2 -7.7,-6.4 0,-2.8 2.9,-5.1 6.5,-5.1 4.8,0 8.3,3.3 8.4,3.3 l 0.9,0.8 3.5,-6.4 -0.5,-0.5 c -0.2,-0.2 -4.4,-4.4 -12.3,-4.4 -8.1,0 -14.1,5.3 -14.1,12.3 0,7.4 6.2,10.2 11.8,12.6 4.3,1.9 8.1,3.5 8.1,7 0,3.5 -3.1,5.1 -6.2,5.1 -5.6,0 -9.8,-4.1 -9.8,-4.1 l -0.7,-0.7 -4.3,5.8 0.5,0.6 c 0.2,0.2 5.2,5.7 14.2,5.7 8.2,0 13.9,-5.1 13.9,-12.4 0,-8.1 -6.8,-10.9 -12.2,-13.2 z"
           inkscape:connector-curvature="0"
           style="fill:#ffffff" />
        <g
           id="g4509">
          <rect
             id="rect4507"
             height="101.5"
             width="70.699997"
             y="11.5"
             x="96.599998"
             style="fill:#c83f18" />
        </g>
        <path
           id="path4511"
           d="m 132,40.2 c -12.3,0 -22,9.6 -22,21.8 0,12.5 9.6,22.4 22,22.4 12.3,0 21.9,-9.8 21.9,-22.4 0,-12.2 -9.7,-21.8 -21.9,-21.8 z m 0,37.1 c -8,0 -14.2,-6.7 -14.2,-15.3 0,-8.3 6.3,-14.8 14.2,-14.8 7.9,0 14.2,6.5 14.2,14.8 -0.1,8.5 -6.3,15.3 -14.2,15.3 z"
           inkscape:connector-curvature="0"
           style="fill:#ffffff" />
        <g
           id="g4515">
          <rect
             id="rect4513"
             height="112.4"
             width="70.699997"
             y="6.4000001"
             x="188"
             style="fill:#c61440" />
        </g>
        <polygon
           id="polygon4517"
           points="227.1,47.7 241.1,47.7 241.1,40.9 205.5,40.9 205.5,47.7 219.5,47.7 219.5,83.7 227.1,83.7 "
           style="fill:#ffffff" />
        <g
           id="g4521">
          <rect
             id="rect4519"
             height="70.300003"
             width="70.699997"
             y="27.200001"
             x="279.29999"
             style="fill:#711f56" />
        </g>
        <path
           id="path4523"
           d="m 323.7,60.9 c 2.6,-2 4.1,-5.1 4.1,-8.7 0,-6.9 -5,-11.3 -12.8,-11.3 h -15.2 v 42.8 h 15.6 c 8.4,0 14.1,-5 14.1,-12.6 0,-4.6 -2.3,-8.4 -5.8,-10.2 z m -8,16 h -8.3 V 64.7 h 8.3 c 3.7,0 6.2,2.4 6.2,6.1 -0.1,3.8 -2.4,6.1 -6.2,6.1 z M 315,58.1 h -7.7 V 47.7 h 7.6 c 3.3,0 5.2,1.9 5.2,5.1 0.1,3.2 -1.9,5.3 -5.1,5.3 z"
           inkscape:connector-curvature="0"
           style="fill:#ffffff" />
      </g>
    </g>
  </g>
</svg>
