<?xml version="1.0" encoding="UTF-8" standalone="no"?>
<svg
   xmlns:dc="http://purl.org/dc/elements/1.1/"
   xmlns:cc="http://creativecommons.org/ns#"
   xmlns:rdf="http://www.w3.org/1999/02/22-rdf-syntax-ns#"
   xmlns:svg="http://www.w3.org/2000/svg"
   xmlns="http://www.w3.org/2000/svg"
   id="svg4595"
   version="1.1"
   viewBox="0 0 31.220833 25.399999"
   height="96"
   width="118">
  <defs
     id="defs4589" />
  <metadata
     id="metadata4592">
    <rdf:RDF>
      <cc:Work
         rdf:about="">
        <dc:format>image/svg+xml</dc:format>
        <dc:type
           rdf:resource="http://purl.org/dc/dcmitype/StillImage" />
        <dc:title></dc:title>
      </cc:Work>
    </rdf:RDF>
  </metadata>
  <g
     transform="translate(-63.866192,-58.174271)"
     id="layer1">
    <path
       d="m 73.685095,83.560871 c 11.781851,0 18.224939,-9.760933 18.224939,-18.224905 0,-0.277325 -0.0056,-0.553228 -0.01846,-0.827712 1.250623,-0.904056 2.337907,-2.032529 3.195446,-3.316886 -1.147648,0.509908 -2.383001,0.853279 -3.678722,1.008453 1.322699,-0.792914 2.338252,-2.047798 2.816914,-3.543433 -1.237837,0.733969 -2.608126,1.267312 -4.067186,1.554935 -1.168952,-1.244942 -2.833609,-2.023652 -4.675456,-2.023652 -3.538106,0 -6.406514,2.868408 -6.406514,6.404739 0,0.502806 0.05646,0.991409 0.165826,1.460481 -5.323138,-0.267737 -10.043691,-2.816566 -13.202917,-6.692007 -0.550387,0.945957 -0.867482,2.046023 -0.867482,3.219237 0,2.222147 1.130958,4.18419 2.850654,5.331838 -1.050708,-0.03231 -2.037856,-0.321214 -2.901076,-0.801436 -0.0014,0.02678 -0.0014,0.05369 -0.0014,0.08185 0,3.102448 2.208298,5.69236 5.138847,6.279536 -0.53796,0.146474 -1.103972,0.225375 -1.688448,0.225375 -0.412968,0 -0.814218,-0.04105 -1.204461,-0.115546 0.815638,2.544708 3.180176,4.396888 5.984314,4.449015 -2.19303,1.718311 -4.954557,2.741962 -7.955768,2.741962 -0.516655,0 -1.026563,-0.0294 -1.527948,-0.08877 2.835029,1.816631 6.200918,2.876926 9.818919,2.876926"
       style="fill:#569cda;fill-opacity:1;fill-rule:nonzero;stroke:none;stroke-width:0.0355089"
       id="path14" />
  </g>
</svg>
