<?xml version="1.0" encoding="UTF-8" standalone="no"?>
<svg
   xmlns:dc="http://purl.org/dc/elements/1.1/"
   xmlns:cc="http://creativecommons.org/ns#"
   xmlns:rdf="http://www.w3.org/1999/02/22-rdf-syntax-ns#"
   xmlns:svg="http://www.w3.org/2000/svg"
   xmlns="http://www.w3.org/2000/svg"
   xml:space="preserve"
   enable-background="new 0 0 350 120"
   viewBox="0 0 350 120"
   y="0px"
   x="0px"
   id="sotb-vector-logo"
   version="1.1"><metadata
     id="metadata4909"><rdf:RDF><cc:Work
         rdf:about=""><dc:format>image/svg+xml</dc:format><dc:type
           rdf:resource="http://purl.org/dc/dcmitype/StillImage" /><dc:title></dc:title></cc:Work></rdf:RDF></metadata><defs
     id="defs4907" /><rect
     y="11.5"
     width="70.699997"
     height="91.5"
     id="rect4867"
     x="0"
     style="fill:#a8801a" /><rect
     x="91.400002"
     y="6.4000001"
     width="70.699997"
     height="101.5"
     id="rect4871"
     style="fill:#a13e17" /><rect
     x="182.8"
     y="1.2"
     width="70.699997"
     height="112.4"
     id="rect4875"
     style="fill:#9f1833" /><rect
     x="274.20001"
     y="22.1"
     width="70.699997"
     height="70.300003"
     id="rect4879"
     style="fill:#51163d" /><rect
     x="5.0999999"
     y="16.6"
     width="70.699997"
     height="91.5"
     id="rect4883"
     style="fill:#dda700" /><path
     style="fill:#ffffff"
     id="path4885"
     d="m 42.5,58.8 c -4.1,-1.7 -7.7,-3.2 -7.7,-6.4 0,-2.8 2.9,-5.1 6.5,-5.1 4.8,0 8.3,3.3 8.4,3.3 l 0.9,0.8 3.5,-6.4 -0.5,-0.5 c -0.2,-0.2 -4.4,-4.4 -12.3,-4.4 -8.1,0 -14.1,5.3 -14.1,12.3 0,7.4 6.2,10.2 11.8,12.6 4.3,1.9 8.1,3.5 8.1,7 0,3.5 -3.1,5.1 -6.2,5.1 -5.6,0 -9.8,-4.1 -9.8,-4.1 l -0.7,-0.7 -4.3,5.8 0.5,0.6 c 0.2,0.2 5.2,5.7 14.2,5.7 8.2,0 13.9,-5.1 13.9,-12.4 0,-8.1 -6.8,-10.9 -12.2,-13.2 z" /><rect
     x="96.599998"
     y="11.5"
     width="70.699997"
     height="101.5"
     id="rect4889"
     style="fill:#c83f18" /><path
     style="fill:#ffffff"
     id="path4891"
     d="m 132,40.2 c -12.3,0 -22,9.6 -22,21.8 0,12.5 9.6,22.4 22,22.4 12.3,0 21.9,-9.8 21.9,-22.4 0,-12.2 -9.7,-21.8 -21.9,-21.8 z m 0,37.1 c -8,0 -14.2,-6.7 -14.2,-15.3 0,-8.3 6.3,-14.8 14.2,-14.8 7.9,0 14.2,6.5 14.2,14.8 -0.1,8.5 -6.3,15.3 -14.2,15.3 z" /><rect
     x="188"
     y="6.4000001"
     width="70.699997"
     height="112.4"
     id="rect4895"
     style="fill:#c61440" /><polygon
     style="fill:#ffffff"
     id="polygon4897"
     points="227.1,83.7 227.1,47.7 241.1,47.7 241.1,40.9 205.5,40.9 205.5,47.7 219.5,47.7 219.5,83.7 " /><rect
     x="279.29999"
     y="27.200001"
     width="70.699997"
     height="70.300003"
     id="rect4901"
     style="fill:#711f56" /><path
     style="fill:#ffffff"
     id="path4903"
     d="m 323.7,60.9 c 2.6,-2 4.1,-5.1 4.1,-8.7 0,-6.9 -5,-11.3 -12.8,-11.3 l -15.2,0 0,42.8 15.6,0 c 8.4,0 14.1,-5 14.1,-12.6 0,-4.6 -2.3,-8.4 -5.8,-10.2 z m -8,16 -8.3,0 0,-12.2 8.3,0 c 3.7,0 6.2,2.4 6.2,6.1 -0.1,3.8 -2.4,6.1 -6.2,6.1 z m -0.7,-18.8 -7.7,0 0,-10.4 7.6,0 c 3.3,0 5.2,1.9 5.2,5.1 0.1,3.2 -1.9,5.3 -5.1,5.3 z" /></svg>