<?xml version="1.0" encoding="UTF-8" standalone="no"?>
<svg
   xmlns:dc="http://purl.org/dc/elements/1.1/"
   xmlns:cc="http://creativecommons.org/ns#"
   xmlns:rdf="http://www.w3.org/1999/02/22-rdf-syntax-ns#"
   xmlns:svg="http://www.w3.org/2000/svg"
   xmlns="http://www.w3.org/2000/svg"
   id="svg4241"
   version="1.1"
   viewBox="0 0 694 201"
   height="201px"
   width="694px">
  <metadata
     id="metadata4294">
    <rdf:RDF>
      <cc:Work
         rdf:about="">
        <dc:format>image/svg+xml</dc:format>
        <dc:type
           rdf:resource="http://purl.org/dc/dcmitype/StillImage" />
        <dc:title>logo decomposed copy 3</dc:title>
      </cc:Work>
    </rdf:RDF>
  </metadata>
  <title
     id="title4243">logo decomposed copy 3</title>
  <rect
     style="fill:#e5dede;fill-rule:nonzero;stroke:none;stroke-width:1"
     height="183"
     width="372"
     y="9"
     x="322"
     id="rect1067" />
  <path
     id="Mask"
     d="m 334.04549,22.318672 347.55944,0 c 0.43974,0 0.79375,0.354013 0.79375,0.79375 l 0,156.476008 c 0,0.43974 -0.35401,0.79375 -0.79375,0.79375 l -347.55944,0 c -0.43974,0 -0.79375,-0.35401 -0.79375,-0.79375 l 0,-156.476008 c 0,-0.439737 0.35401,-0.79375 0.79375,-0.79375 z"
     style="fill:#711f56;fill-rule:nonzero;stroke:none;stroke-width:1" />
  <rect
     style="fill:#e5dede;fill-rule:nonzero;stroke:none;stroke-width:1"
     height="200.33746"
     width="136.54263"
     y="0.37549022"
     x="160.72916"
     id="rect1071" />
  <path
     id="use4270"
     d="m 168.37989,10.436107 121.24125,0 c 0.43973,0 0.79375,0.354012 0.79375,0.79375 l 0,165.472233 c 0,0.43974 -0.35402,0.79375 -0.79375,0.79375 l -121.24125,0 c -0.43974,0 -0.79375,-0.35401 -0.79375,-0.79375 l 0,-165.472233 c 0,-0.439738 0.35401,-0.79375 0.79375,-0.79375 z"
     style="fill:#c61440;fill-rule:nonzero;stroke:none;stroke-width:1" />
  <rect
     style="fill:#e5dede;fill-rule:nonzero;stroke:none;stroke-width:1"
     height="123.75474"
     width="68.739273"
     y="39"
     x="67"
     id="rect1065" />
  <path
     id="path4619"
     d="M 8.8457031 16 L 8.8457031 79.662109 L 0 79.662109 L 0 122.52539 L 8.8457031 122.52539 L 8.8457031 186.29688 L 33.90625 186.29688 L 33.90625 122.52539 L 42.751953 122.52539 L 42.751953 79.662109 L 33.90625 79.662109 L 33.90625 16 L 8.8457031 16 z "
     style="fill:#e5dede;fill-rule:nonzero;stroke:none;stroke-width:1" />
  <path
     id="use4288"
     d="m 4.79375,83.198814 33.282827,0 c 0.439738,0 0.79375,0.354013 0.79375,0.79375 l 0,33.431956 c 0,0.43974 -0.354012,0.79375 -0.79375,0.79375 l -33.282827,0 C 4.3540125,118.21827 4,117.86426 4,117.42452 L 4,83.992564 c 0,-0.439737 0.3540125,-0.79375 0.79375,-0.79375 z"
     style="fill:#dda700;fill-rule:nonzero;stroke:none;stroke-width:1" />
  <path
     id="polygon4290"
     d="M 4.7929688,83.199219 C 4.3532313,83.199219 4,83.55245 4,83.992188 l 0,20.931642 34.871094,-13.632814 0,-7.298828 c 0,-0.439738 -0.355185,-0.792969 -0.794922,-0.792969 l -33.2832032,0 z"
     mask="none"
     style="opacity:1;fill:#fae100;fill-opacity:1;fill-rule:evenodd;stroke:none;stroke-width:1" />
  <path
     id="use4622"
     d="m 71.345798,44.606392 60.465162,0 c 0.43974,0 0.79375,0.354012 0.79375,0.79375 l 0,101.016328 c 0,0.43974 -0.35401,0.79375 -0.79375,0.79375 l -60.465162,0 c -0.439738,0 -0.79375,-0.35401 -0.79375,-0.79375 l 0,-101.016328 c 0,-0.439738 0.354012,-0.79375 0.79375,-0.79375 z"
     style="fill:#c83f18;fill-rule:nonzero;stroke:none;stroke-width:1" />
  <path
     id="polygon4281"
     d="m 71.345703,44.605469 c -0.439737,0 -0.792969,0.355184 -0.792969,0.794922 l 0,55.546879 62.052736,-33.191411 0,-22.355468 c 0,-0.439738 -0.35519,-0.794922 -0.79492,-0.794922 l -60.464847,0 z"
     mask="none"
     style="fill:#f36e2e;fill-opacity:1;fill-rule:evenodd;stroke:none;stroke-width:1" />
  <path
     id="polygon4272"
     d="m 168.38086,10.435547 c -0.43974,0 -0.79492,0.355184 -0.79492,0.794922 l 0,97.552731 122.82812,-58.955075 0,-38.597656 c 0,-0.439738 -0.35324,-0.794922 -0.79297,-0.794922 l -121.24023,0 z"
     mask="none"
     style="fill:#f22670;fill-opacity:1;fill-rule:evenodd;stroke:none;stroke-width:1" />
  <path
     id="polygon4263"
     d="m 334.04492,22.318359 c -0.43974,0 -0.79297,0.355185 -0.79297,0.794922 l 0,144.117189 349.14649,-123.722658 0,-20.394531 c 0,-0.439737 -0.35323,-0.794922 -0.79297,-0.794922 l -347.56055,0 z"
     mask="none"
     style="fill:#b03a8f;fill-opacity:1;fill-rule:evenodd;stroke:none;stroke-width:1" />
</svg>
