<?xml version="1.0" standalone="no"?>
<!DOCTYPE svg PUBLIC "-//W3C//DTD SVG 20010904//EN"
 "http://www.w3.org/TR/2001/REC-SVG-20010904/DTD/svg10.dtd">
<svg version="1.0" xmlns="http://www.w3.org/2000/svg"
 width="700.000000pt" height="700.000000pt" viewBox="0 0 700.000000 700.000000"
 preserveAspectRatio="xMidYMid meet">
<metadata>
Created by potrace 1.11, written by Peter Selinger 2001-2013
</metadata>
<g transform="translate(0.000000,700.000000) scale(0.100000,-0.100000)"
fill="#000000" stroke="none">
<path d="M3639 4518 c-3 -41 -4 -1935 -1 -1945 3 -8 22 -13 49 -13 l45 0 -4
-42 -3 -43 620 0 620 0 1 970 c0 534 -2 976 -4 983 -3 7 -12 12 -21 11 -58 -5
-69 0 -69 34 0 17 0 38 -1 45 -1 9 -131 12 -616 12 -485 0 -615 -3 -616 -12z"/>
<path d="M2037 3572 c0 -477 2 -877 2 -889 1 -20 6 -23 46 -23 l45 0 0 -45 0
-44 615 1 c338 0 616 3 616 7 1 3 2 403 3 889 l2 882 -46 0 c-46 0 -46 0 -45
33 0 17 -1 37 -3 43 -2 8 -174 11 -620 12 l-617 0 2 -866z"/>
<path d="M439 4333 c-4 -93 -1 -1575 4 -1579 3 -4 24 -6 45 -6 l40 1 -2 -45
c-2 -41 0 -44 24 -44 230 -4 1204 0 1208 5 4 4 7 364 7 801 l0 794 -45 0 -45
0 0 43 0 42 -618 3 c-583 2 -617 1 -618 -15z"/>
<path d="M5241 4160 c-3 -3 -6 -279 -6 -615 l0 -610 25 -1 c71 -4 68 -2 65
-38 -1 -19 1 -39 4 -43 9 -13 1231 -11 1232 2 5 57 2 1200 -2 1207 -4 6 -22
12 -40 13 -19 2 -37 3 -42 4 -4 0 -6 16 -4 35 2 19 1 38 -2 43 -6 8 -1218 12
-1230 3z"/>
</g>
</svg>
