<?xml version="1.0" encoding="utf-8"?>
<!-- Generator: Adobe Illustrator 23.0.4, SVG Export Plug-In . SVG Version: 6.00 Build 0)  -->
<svg version="1.1" id="Layer_1" xmlns="http://www.w3.org/2000/svg" xmlns:xlink="http://www.w3.org/1999/xlink" x="0px" y="0px"
	 viewBox="0 0 608.5 608.5" style="enable-background:new 0 0 608.5 608.5;" xml:space="preserve">
<style type="text/css">
	.st0{fill-rule:evenodd;clip-rule:evenodd;fill:#FFED00;}
	.st1{fill:#424241;}
	.st2{fill:#009FE3;}
</style>
<rect x="0" y="0" class="st0" width="608.5" height="608.5"/>
<g>
	<g>
		<path class="st1" d="M120.1,329.7c-14.3,0-21.5-12.2-21.5-25.2s7.2-25.2,21.5-25.2c8.7,0,14.8,4.6,18.3,11.1
			c1.9-7.8,5.3-14.5,10-20c-7.1-6-16.6-9.5-28.2-9.5c-27,0-42.6,18.8-42.6,43.6s15.6,43.6,42.6,43.6c11.6,0,21.2-3.5,28.2-9.5
			c-4.7-5.5-8.1-12.3-10-20C134.9,325.1,128.8,329.7,120.1,329.7z"/>
		<path class="st1" d="M185.8,260.9c-14.4,0-25.6,5.4-32.9,14.1c-6.3,7.6-9.7,17.9-9.7,29.5s3.4,21.8,9.7,29.5
			c7.3,8.8,18.4,14.1,32.9,14.1c25.9,0,41.4-17.3,42.5-40.7v-0.9v-1.9v-0.7v-2.2C227.2,278.2,211.7,260.9,185.8,260.9z M185.8,329.7
			c-14.3,0-21.5-12.2-21.5-25.2c0-13,7.2-25.2,21.5-25.2s21.5,12.2,21.5,25.2C207.4,317.5,200.1,329.7,185.8,329.7z"/>
		<path class="st1" d="M347.8,241.4h-21.1v21.5h-15.3v3.9c4.9,4.6,8.8,10.2,11.3,16.8h4v18.8c0,17.2,7.5,31.5,21.1,38.6
			c6,3.2,13.2,5,21.5,5h18.1v-18.4h-18.1c-14.3,0-21.5-12.1-21.5-25v-18.9h39.7v-20.8h-39.7V241.4z"/>
		<path class="st1" d="M455.8,264.7c-5.5-2.5-12-3.8-19.2-3.8c-8.7,0-16.3,2-22.5,5.5v-3.5h-20.1V346v0.1v0H415v0v-41.6v0
			c0-13,7.2-25.2,21.5-25.2c2.5,0,4.8,0.4,6.9,1.1C446.4,274.2,450.6,268.9,455.8,264.7z"/>
		<path class="st1" d="M315.7,283.7c-1.2-2.6-2.6-5-4.3-7.2c-7.2-9.6-18.8-15.6-34-15.6c-8.7,0-16.3,2-22.5,5.5v-3.5h-20.1v83.2v0
			h21.1v0v-41.6v0c0-13,7.2-25.2,21.5-25.2c14.3,0,21.5,12.2,21.5,25.2v41.6v0H320v0v-42.3h0C319.9,296.4,318.4,289.6,315.7,283.7z"
			/>
		<path class="st1" d="M510,262.9v3.6c-6.2-3.5-13.8-5.5-22.5-5.5c-7.3,0-13.7,1.4-19.3,3.9c-1.1,0.5-2.2,1.1-3.3,1.7
			c-1,0.6-2,1.2-2.9,1.8c-5.6,3.9-9.9,9.1-12.8,15.3c-0.5,1-0.9,2.1-1.3,3.1c-0.4,1.1-0.8,2.2-1.1,3.4c-1.3,4.5-2,9.3-2,14.5
			c0,9.6,2.4,18.3,6.8,25.4c1,1.6,2.1,3,3.2,4.4c1,1.2,2.1,2.3,3.2,3.3c4.2,3.8,9.2,6.7,15.1,8.5c2.9,0.9,5.9,1.4,9.1,1.7
			c1.1,0.1,2.1,0.2,3.2,0.2c0.6,0,1.2,0,1.8,0c8.8,0,16.3-2,22.5-5.5v3.6H531v-83.2H510z M487.4,329.7c-0.6,0-1.2,0-1.8-0.1
			c-1.1-0.1-2.2-0.2-3.2-0.5c-1.1-0.3-2.2-0.6-3.2-1c-1.8-0.8-3.4-1.8-4.8-3c-5.6-4.7-8.4-12.5-8.4-20.6c0-6.4,1.8-12.6,5.3-17.3
			c1-1.4,2.2-2.6,3.6-3.7c0.8-0.7,1.8-1.3,2.7-1.8c0.9-0.5,1.9-1,3-1.3c2.1-0.7,4.4-1.1,7-1.1c14.3,0,21.5,12.2,21.5,25.2
			C509,317.5,501.7,329.7,487.4,329.7z"/>
	</g>
	<g>
		<path class="st2" d="M452.2,364.2h3.3l5,15h-3l-0.9-2.9H451l-0.9,2.9h-3L452.2,364.2z M453.9,366.9L453.9,366.9l-2.1,6.9h4.2
			L453.9,366.9z"/>
		<path class="st2" d="M472.3,369.3c-0.3-1.2-1.3-2.9-3.8-2.9c-3,0-4.2,2.7-4.2,5.3c0,2.6,1.2,5.3,4.2,5.3c2,0,3.8-1.4,3.8-3.5h-3.7
			V371h6.3v8.2h-2.4v-1.3c-1,1.1-2.6,1.7-3.9,1.7c-4.8,0-7.2-3.6-7.2-7.9c0-4.2,2.7-7.9,7.2-7.9c3.1,0,5.2,1.5,6.4,4.4L472.3,369.3z
			"/>
		<path class="st2" d="M477.5,364.2h10.6v2.6h-7.8v3.4h7.2v2.5h-7.2v3.9h8.3v2.6h-11.2V364.2z"/>
		<path class="st2" d="M490.5,364.2h2.6l6.3,10.7h0v-10.7h2.6v15h-2.6l-6.3-10.7h0v10.7h-2.6V364.2z"/>
		<path class="st2" d="M514.8,369.2c-0.2-1.7-1.6-2.8-3.3-2.8c-3,0-4.2,2.7-4.2,5.3c0,2.6,1.2,5.3,4.2,5.3c2,0,3.1-1.3,3.6-3
			l2.6,1.2c-1.2,3-3.2,4.5-6.2,4.5c-4.8,0-7.2-3.6-7.2-7.9c0-4.2,2.7-7.9,7.2-7.9c3,0,5.3,1.6,6,4.7L514.8,369.2z"/>
		<path class="st2" d="M523.2,373.3l-5-9.1h3.1l3.3,6.2l3.3-6.2h3.1l-5,9.1v5.9h-2.8V373.3z"/>
	</g>
</g>
</svg>
