<?xml version="1.0" encoding="UTF-8"?>
<svg width="1912px" height="748px" viewBox="0 0 1912 748" version="1.1" xmlns="http://www.w3.org/2000/svg" xmlns:xlink="http://www.w3.org/1999/xlink">
    <!-- Generator: Sketch 56.3 (81716) - https://sketch.com -->
    <title>Group 3</title>
    <desc>Created with Sketch.</desc>
    <defs>
        <polygon id="path-1" points="0 0 1911.648 0 1911.648 747.073 0 747.073"></polygon>
    </defs>
    <g id="-Article-Page" stroke="none" stroke-width="1" fill="none" fill-rule="evenodd">
        <g id="Group-3">
            <mask id="mask-2" fill="white">
                <use xlink:href="#path-1"></use>
            </mask>
            <g id="Clip-2"></g>
            <path d="M0,363.379 L83.063,363.379 L83.063,0.021 L0,0.021 L0,363.379 Z M110.961,363.358 L185.518,363.358 L185.518,121.281 L228.443,363.358 L279.893,363.358 L324.254,121.281 L324.254,363.358 L398.81,363.358 L398.81,0.021 L287.442,0.021 L255.355,174.15 L225.159,0.021 L110.961,0.021 L110.961,363.358 Z M427.297,0.021 L541.472,0.021 L571.686,174.15 L603.746,0.021 L715.147,0.021 L715.147,363.358 L640.567,363.358 L640.567,121.281 L596.206,363.358 L544.777,363.358 L501.376,121.281 L501.855,363.358 L427.297,363.358 L427.297,0.021 Z M1196.904,363.358 L1279.97,363.358 L1279.97,-1.13686838e-13 L1196.904,-1.13686838e-13 L1196.904,363.358 Z M1429.358,248.704 L1411.419,126.957 L1392.546,248.704 L1429.358,248.704 Z M1370.311,0.021 L1451.477,0.021 L1524.15,363.358 L1446.81,363.358 L1436.898,299.203 L1385.003,299.203 L1374.628,363.358 L1294.823,363.358 L1370.311,0.021 Z M946.301,632.414 L965.182,510.669 L983.104,632.414 L946.301,632.414 Z M848.574,747.073 L928.382,747.073 L938.748,682.912 L990.667,682.912 L1000.556,747.073 L1077.913,747.073 L1005.223,383.727 L924.065,383.727 L848.574,747.073 Z M1631.243,363.358 L1548.171,363.358 L1548.171,67.971 L1478.844,67.971 L1478.844,0.021 L1700.608,0.021 L1700.608,67.971 L1631.243,67.971 L1631.243,363.358 Z M0,746.741 L74.557,746.741 L74.557,504.663 L117.495,746.741 L168.938,746.741 L213.302,504.663 L213.302,746.741 L287.862,746.741 L287.862,383.397 L176.481,383.397 L144.401,557.489 L114.207,383.397 L0,383.397 L0,746.741 Z M313.195,383.397 L499.104,383.397 L499.104,451.327 L393.076,451.327 L393.076,531.094 L480.24,531.094 L480.24,596.69 L393.076,596.69 L393.076,678.811 L499.104,678.811 L499.104,746.741 L313.195,746.741 L313.195,383.397 Z M747.604,746.741 L830.664,746.741 L830.664,383.398 L747.604,383.398 L747.604,746.741 Z M1059.02,299.203 L1045.844,299.203 L1045.844,59.497 L1055.214,59.497 C1097.039,59.497 1096.76802,110.144 1096.76802,181.691 C1096.76802,282.486 1095.289,298.444 1059.02,299.203 L1059.02,299.203 Z M1056.164,0.021 L962.79,0.021 L962.79,0.058 L962.79,363.358 L1059.953,363.358 C1078.922,363.358 1123.277,364.408 1147.301,334.614 C1173.985,300.075 1178.34,256.032 1178.34,181.691 C1178.34,138.31 1170.176,63.324 1143.492,28.785 C1119.506,-1.009 1075.113,0.021 1056.164,0.021 L1056.164,0.021 Z M610.861,682.565 L597.664,682.565 L597.664,442.853 L607.051,442.853 C648.851,442.853 648.577023,493.489 648.577023,565.067 C648.577023,665.827 647.118,681.804 610.861,682.565 L610.861,682.565 Z M607.993,383.397 L514.584,383.397 L514.584,383.441 L514.584,746.741 L611.794,746.741 C630.763,746.741 675.127,747.773 699.121,717.974 C725.817,683.437 730.17,639.374 730.17,565.067 C730.17,521.652 722.017,446.683 695.324,412.144 C671.335,382.347 626.953,383.397 607.993,383.397 L607.993,383.397 Z M746.388,363.358 L941.744,363.358 L941.744,295.411 L829.451,295.411 L829.451,213.8 L922.393,213.8 L922.393,148.204 L829.451,148.204 L829.451,67.971 L941.744,67.971 L941.744,0.021 L746.388,0.021 L746.388,363.358 Z M1716.315,0.021 L1906.943,0.021 L1906.943,67.971 L1799.367,67.971 L1799.367,148.204 L1892.309,148.204 L1892.309,213.8 L1799.367,213.8 L1799.367,295.411 L1911.648,295.411 L1911.648,363.358 L1716.315,363.358 L1716.315,0.021 Z M1239.156,489.113 C1232.995,489.113 1227.164,487.284 1227.164,449.253 C1227.164,411.251 1232.666,409.405 1239.156,409.405 C1245.316,409.405 1251.594,411.251 1251.594,449.253 C1251.594,487.284 1245.728,489.113 1239.156,489.113 L1239.156,489.113 Z M1271.42,395.759 C1260.613,384.042 1243.158,384.021 1239.156,384.021 C1235.151,384.021 1217.74,384.042 1206.929,395.759 C1194.783,407.736 1192.467,428.744 1192.467,449.288 C1192.467,469.791 1194.783,490.825 1206.929,502.797 C1217.74,514.517 1235.151,514.517 1239.156,514.517 C1243.158,514.517 1260.613,514.517 1271.42,502.797 C1283.549,490.825 1285.842,469.791 1285.842,449.288 C1285.842,428.744 1283.549,407.736 1271.42,395.759 L1271.42,395.759 Z M1199.001,555.447 L1281.682,555.447 L1281.682,531.601 L1199.001,531.601 L1199.001,555.447 Z M1183.08,486.141 C1182.133,541.417 1167.863,557.801 1131.871,560.071 C1095.135,560.071 1075.037,543.823 1075.037,471.679 C1075.037,412.225 1091.112,383.727 1130.509,383.727 C1160.323,383.727 1179.854,396.984 1181.275,448.413 L1144.189,449.288 C1143.378,417.878 1139.411,415.586 1129.613,415.586 C1118.263,415.586 1115.133,425.151 1115.133,472.125 C1115.133,522.019 1120.072,527.561 1130.509,527.561 C1140.032,527.561 1144.813,522.97 1144.425,486.505 L1183.08,486.141 Z" id="Fill-1" fill="#4BAFE8" mask="url(#mask-2)"></path>
        </g>
    </g>
</svg>