<svg xmlns="http://www.w3.org/2000/svg" width="841" height="225" viewBox="0 0 841 225">
  <g fill="none" fill-rule="evenodd">
    <g transform="translate(580.953 36.556)">
      <rect width="259.026" height="187.074" fill="#A0A5A9"/>
      <path fill="#FFFFFF" d="M73.8441179,54.7694384 C78.3036429,54.7694384 82.6694149,55.2753433 86.9415649,56.2871683 C91.2137149,57.2989933 95.8230707,59.0228174 100.769771,61.4586924 L100.769771,75.736596 C95.9354957,72.963446 91.466669,70.9585636 87.3631565,69.7218886 C83.2596441,68.4852136 78.9781895,67.8668854 74.5186646,67.8668854 C68.9348896,67.8668854 63.8945777,69.0192243 59.3975777,71.3239368 C54.9005778,73.6286493 51.4060864,76.8795568 48.913999,81.0767567 C46.4219115,85.2739567 45.1758864,89.9395242 45.1758864,95.0735992 C45.1758864,100.320099 46.4125429,105.023141 48.8858928,109.182866 C51.3592428,113.342591 54.8443655,116.556024 59.3413655,118.823262 C63.8383655,121.090499 68.8974146,122.224101 74.5186646,122.224101 C78.8282895,122.224101 82.9411091,121.605773 86.8572466,120.369098 C90.7733841,119.132423 95.7106412,116.902694 101.669166,113.679844 L101.669166,127.957747 C96.5725662,130.618472 91.8882615,132.510931 87.6161115,133.635181 C83.3439615,134.759431 78.3598613,135.321548 72.6636614,135.321548 C64.3816864,135.321548 56.9804849,133.672673 50.459835,130.374873 C43.939185,127.077073 38.8145556,122.327188 35.0857932,116.125075 C31.3570307,109.922963 29.4926774,103.130721 29.4926774,95.7481458 C29.4926774,87.8409209 31.4132423,80.7395149 35.2544298,74.4437149 C39.0956173,68.147915 44.379513,63.2949753 51.1062755,59.8847503 C57.833038,56.4745253 65.412243,54.7694384 73.8441179,54.7694384 Z M138.881655,54.7694384 C146.526555,54.7694384 153.890282,56.6806347 160.973057,60.5030847 L160.973057,73.9940172 C152.840982,69.0847922 145.627153,66.6302165 139.331353,66.6302165 C135.508903,66.6302165 132.520316,67.3703367 130.365504,68.8505992 C128.210691,70.3308617 127.133301,72.3076383 127.133301,74.7809883 C127.133301,77.7415132 129.138184,80.4771472 133.148009,82.9879722 C134.272259,83.7374722 138.600556,85.8360407 146.133031,89.2837407 C152.578731,92.3192157 157.225561,95.6919151 160.073661,99.40194 C162.921761,103.111965 164.34579,107.571423 164.34579,112.780448 C164.34579,119.525948 161.91932,124.96911 157.066308,129.110098 C152.213295,133.251085 145.926958,135.321548 138.207108,135.321548 C133.185458,135.321548 128.866529,134.7688 125.250192,133.663287 C121.633854,132.557775 117.577247,130.655947 113.080247,127.957747 L113.080247,113.005297 C121.474647,119.975647 129.381753,123.46077 136.801803,123.46077 C140.511828,123.46077 143.509783,122.655069 145.795758,121.043644 C148.081733,119.432219 149.224703,117.296176 149.224703,114.635451 C149.224703,111.000376 147.238558,108.039896 143.266208,105.753921 C139.968408,103.955121 135.715059,101.800341 130.506034,99.2895156 C124.322659,96.4788906 119.703935,93.1998773 116.649722,89.4523773 C113.59551,85.7048773 112.068427,81.3578426 112.068427,76.4111426 C112.068427,69.8155426 114.523002,64.5597527 119.432227,60.6436153 C124.341452,56.7274778 130.82453,54.7694384 138.881655,54.7694384 Z M200.377822,54.7694384 C208.022722,54.7694384 215.386449,56.6806347 222.469224,60.5030847 L222.469224,73.9940172 C214.337149,69.0847922 207.12332,66.6302165 200.82752,66.6302165 C197.00507,66.6302165 194.016484,67.3703367 191.861671,68.8505992 C189.706859,70.3308617 188.629468,72.3076383 188.629468,74.7809883 C188.629468,77.7415132 190.634351,80.4771472 194.644176,82.9879722 C195.768426,83.7374722 200.096723,85.8360407 207.629198,89.2837407 C214.074898,92.3192157 218.721729,95.6919151 221.569829,99.40194 C224.417929,103.111965 225.841957,107.571423 225.841957,112.780448 C225.841957,119.525948 223.415487,124.96911 218.562475,129.110098 C213.709462,133.251085 207.423126,135.321548 199.703276,135.321548 C194.681626,135.321548 190.362697,134.7688 186.746359,133.663287 C183.130022,132.557775 179.073414,130.655947 174.576414,127.957747 L174.576414,113.005297 C182.970814,119.975647 190.87792,123.46077 198.29797,123.46077 C202.007995,123.46077 205.00595,122.655069 207.291925,121.043644 C209.5779,119.432219 210.72087,117.296176 210.72087,114.635451 C210.72087,111.000376 208.734725,108.039896 204.762375,105.753921 C201.464575,103.955121 197.211227,101.800341 192.002202,99.2895156 C185.818827,96.4788906 181.200102,93.1998773 178.14589,89.4523773 C175.091677,85.7048773 173.564594,81.3578426 173.564594,76.4111426 C173.564594,69.8155426 176.01917,64.5597527 180.928395,60.6436153 C185.83762,56.7274778 192.320697,54.7694384 200.377822,54.7694384 Z"/>
    </g>
    <rect width="580.41" height="187.074" x=".543" y="36.556" fill="#FFFFFF"/>
    <path fill="#0098D4" fill-rule="nonzero" d="M29.3236247,224.037163 L311.720659,224.037163 C322.502572,224.037163 336.584993,218.571705 344.541468,211.299618 L545.461936,27.6616319 C549.733665,23.7573429 558.997249,20.1612891 564.78276,20.1612891 L840.078125,20.1612891 L840.078125,0.161289058 L564.78276,0.161289058 C554.003187,0.161289058 539.926579,5.62572246 531.968983,12.8988338 L331.048514,196.53682 C326.778308,200.439718 317.509052,204.037163 311.720659,204.037163 L29.3236247,204.037163 L29.3236247,224.037163 Z"/>
    <g transform="translate(29.324 89.321)">
      <polygon fill="#000000" points="19.037 3.017 19.037 69.684 57.149 69.684 57.149 81.545 3.86 81.545 3.86 3.017"/>
      <path fill="#000000" d="M105.491597,2.00490247 C113.623672,2.00490247 120.940556,3.68188355 127.442468,7.03589604 C133.944381,10.3899085 139.125222,15.224111 142.985147,21.5386485 C146.845072,27.8531859 148.775005,34.7765883 148.775005,42.3090633 C148.775005,49.6541632 146.891915,56.4651423 143.125677,62.7422048 C139.35944,69.0192672 134.187968,73.8909441 127.611105,77.3573816 C121.034243,80.8238191 113.623673,82.5570118 105.379173,82.5570118 C97.2470977,82.5570118 89.8552648,80.7957133 83.2034524,77.2730633 C76.5516399,73.7504133 71.3707989,68.9068422 67.6607739,62.7422048 C63.9507489,56.5775673 62.0957642,49.7665882 62.0957642,42.3090633 C62.0957642,35.1138633 63.9507489,28.3497273 67.6607739,22.0164523 C71.3707989,15.6831773 76.4860596,10.7646574 83.0067096,7.26074491 C89.5273596,3.75683243 97.0222471,2.00490247 105.491597,2.00490247 Z"/>
      <path fill="#FFFFFF" d="M77.7789733,42.3090633 C77.7789733,47.5180882 78.959418,52.202393 81.320343,56.3621179 C83.681268,60.5218429 86.9696499,63.7446446 91.1855874,66.0306195 C95.4015249,68.3165945 100.170147,69.4595649 105.491597,69.4595649 C113.548722,69.4595649 120.172329,66.9300403 125.362616,61.8709154 C130.552904,56.8117904 133.148009,50.2912382 133.148009,42.3090633 C133.148009,37.1000383 131.976932,32.406365 129.634745,28.2279025 C127.292557,24.04944 123.994807,20.8172697 119.741394,18.5312948 C115.487982,16.2453198 110.700623,15.1023494 105.379173,15.1023494 C100.057723,15.1023494 95.2703632,16.2546884 91.0169508,18.5594009 C86.7635383,20.8641134 83.4938936,24.086915 81.2079186,28.2279025 C78.9219436,32.36889 77.7789733,37.0625633 77.7789733,42.3090633 Z"/>
      <polygon fill="#000000" points="176.319 3.017 222.975 57.824 222.975 3.017 237.815 3.017 237.815 81.545 224.774 81.545 177.837 25.839 177.837 81.545 162.997 81.545 162.997 3.017"/>
      <path fill="#000000" d="M287.956459,3.0167224 C296.126009,3.0167224 303.39605,4.68433488 309.7668,8.01960987 C316.13755,11.3548849 321.084176,16.0391896 324.606825,22.0726645 C328.129475,28.1061395 329.890774,34.8890127 329.890774,42.4214877 C329.890774,50.1038627 328.120107,56.9148417 324.578719,62.8546292 C321.037332,68.7944167 316.006389,73.3944039 309.485739,76.6547289 C302.965089,79.9150539 295.488938,81.5451919 287.057063,81.5451919 L255.072311,81.5451919 L255.072311,3.0167224 L287.956459,3.0167224 Z"/>
      <path fill="#FFFFFF" d="M286.382517,69.6844138 C294.776917,69.6844138 301.512947,67.1642578 306.590809,62.1238703 C311.668672,57.0834829 314.207565,50.4786132 314.207565,42.3090633 C314.207565,33.8397133 311.649935,27.1505262 306.534597,22.2413012 C301.41926,17.3320762 294.533332,14.8775005 285.876607,14.8775005 L270.24961,14.8775005 L270.24961,69.6844138 L286.382517,69.6844138 Z"/>
      <path fill="#000000" d="M384.304202,2.00490247 C392.436277,2.00490247 399.753161,3.68188355 406.255073,7.03589604 C412.756986,10.3899085 417.937827,15.224111 421.797752,21.5386485 C425.657677,27.8531859 427.58761,34.7765883 427.58761,42.3090633 C427.58761,49.6541632 425.70452,56.4651423 421.938282,62.7422048 C418.172045,69.0192672 413.000572,73.8909441 406.42371,77.3573816 C399.846847,80.8238191 392.436277,82.5570118 384.191777,82.5570118 C376.059702,82.5570118 368.667869,80.7957133 362.016057,77.2730633 C355.364245,73.7504133 350.183404,68.9068422 346.473379,62.7422048 C342.763354,56.5775673 340.908369,49.7665882 340.908369,42.3090633 C340.908369,35.1138633 342.763354,28.3497273 346.473379,22.0164523 C350.183404,15.6831773 355.298664,10.7646574 361.819314,7.26074491 C368.339964,3.75683243 375.834852,2.00490247 384.304202,2.00490247 Z"/>
      <path fill="#FFFFFF" d="M356.591578,42.3090633 C356.591578,47.5180882 357.772023,52.202393 360.132948,56.3621179 C362.493873,60.5218429 365.782255,63.7446446 369.998192,66.0306195 C374.21413,68.3165945 378.982752,69.4595649 384.304202,69.4595649 C392.361327,69.4595649 398.984934,66.9300403 404.175221,61.8709154 C409.365509,56.8117904 411.960613,50.2912382 411.960613,42.3090633 C411.960613,37.1000383 410.789537,32.406365 408.44735,28.2279025 C406.105162,24.04944 402.807412,20.8172697 398.553999,18.5312948 C394.300587,16.2453198 389.513227,15.1023494 384.191777,15.1023494 C378.870327,15.1023494 374.082968,16.2546884 369.829555,18.5594009 C365.576143,20.8641134 362.306498,24.086915 360.020523,28.2279025 C357.734548,32.36889 356.591578,37.0625633 356.591578,42.3090633 Z"/>
      <polygon fill="#000000" points="455.132 3.017 501.788 57.824 501.788 3.017 516.628 3.017 516.628 81.545 503.587 81.545 456.649 25.839 456.649 81.545 441.809 81.545 441.809 3.017"/>
    </g>
  </g>
</svg>
