<svg xmlns="http://www.w3.org/2000/svg" width="578" height="578" viewBox="0 0 578 578" style="background:#fff">
  <g fill="none" fill-rule="evenodd" transform="translate(30 112)">
    <g transform="translate(2 167)">
      <rect width="254.026" height="182.074" x="2.5" y="2.5" stroke="#A0A5A9" stroke-width="5"/>
      <path fill="#A0A5A9" d="M73.8441179,54.7694384 C78.3036429,54.7694384 82.6694149,55.2753433 86.9415649,56.2871683 C91.2137149,57.2989933 95.8230707,59.0228174 100.769771,61.4586924 L100.769771,75.736596 C95.9354957,72.963446 91.466669,70.9585636 87.3631565,69.7218886 C83.2596441,68.4852136 78.9781895,67.8668854 74.5186646,67.8668854 C68.9348896,67.8668854 63.8945777,69.0192243 59.3975777,71.3239368 C54.9005778,73.6286493 51.4060864,76.8795568 48.913999,81.0767567 C46.4219115,85.2739567 45.1758864,89.9395242 45.1758864,95.0735992 C45.1758864,100.320099 46.4125429,105.023141 48.8858928,109.182866 C51.3592428,113.342591 54.8443655,116.556024 59.3413655,118.823262 C63.8383655,121.090499 68.8974146,122.224101 74.5186646,122.224101 C78.8282895,122.224101 82.9411091,121.605773 86.8572466,120.369098 C90.7733841,119.132423 95.7106412,116.902694 101.669166,113.679844 L101.669166,127.957747 C96.5725662,130.618472 91.8882615,132.510931 87.6161115,133.635181 C83.3439615,134.759431 78.3598613,135.321548 72.6636614,135.321548 C64.3816864,135.321548 56.9804849,133.672673 50.459835,130.374873 C43.939185,127.077073 38.8145556,122.327188 35.0857932,116.125075 C31.3570307,109.922963 29.4926774,103.130721 29.4926774,95.7481458 C29.4926774,87.8409209 31.4132423,80.7395149 35.2544298,74.4437149 C39.0956173,68.147915 44.379513,63.2949753 51.1062755,59.8847503 C57.833038,56.4745253 65.412243,54.7694384 73.8441179,54.7694384 Z M138.881655,54.7694384 C146.526555,54.7694384 153.890282,56.6806347 160.973057,60.5030847 L160.973057,73.9940172 C152.840982,69.0847922 145.627153,66.6302165 139.331353,66.6302165 C135.508903,66.6302165 132.520316,67.3703367 130.365504,68.8505992 C128.210691,70.3308617 127.133301,72.3076383 127.133301,74.7809883 C127.133301,77.7415132 129.138184,80.4771472 133.148009,82.9879722 C134.272259,83.7374722 138.600556,85.8360407 146.133031,89.2837407 C152.578731,92.3192157 157.225561,95.6919151 160.073661,99.40194 C162.921761,103.111965 164.34579,107.571423 164.34579,112.780448 C164.34579,119.525948 161.91932,124.96911 157.066308,129.110098 C152.213295,133.251085 145.926958,135.321548 138.207108,135.321548 C133.185458,135.321548 128.866529,134.7688 125.250192,133.663287 C121.633854,132.557775 117.577247,130.655947 113.080247,127.957747 L113.080247,113.005297 C121.474647,119.975647 129.381753,123.46077 136.801803,123.46077 C140.511828,123.46077 143.509783,122.655069 145.795758,121.043644 C148.081733,119.432219 149.224703,117.296176 149.224703,114.635451 C149.224703,111.000376 147.238558,108.039896 143.266208,105.753921 C139.968408,103.955121 135.715059,101.800341 130.506034,99.2895156 C124.322659,96.4788906 119.703935,93.1998773 116.649722,89.4523773 C113.59551,85.7048773 112.068427,81.3578426 112.068427,76.4111426 C112.068427,69.8155426 114.523002,64.5597527 119.432227,60.6436153 C124.341452,56.7274778 130.82453,54.7694384 138.881655,54.7694384 Z M200.377822,54.7694384 C208.022722,54.7694384 215.386449,56.6806347 222.469224,60.5030847 L222.469224,73.9940172 C214.337149,69.0847922 207.12332,66.6302165 200.82752,66.6302165 C197.00507,66.6302165 194.016484,67.3703367 191.861671,68.8505992 C189.706859,70.3308617 188.629468,72.3076383 188.629468,74.7809883 C188.629468,77.7415132 190.634351,80.4771472 194.644176,82.9879722 C195.768426,83.7374722 200.096723,85.8360407 207.629198,89.2837407 C214.074898,92.3192157 218.721729,95.6919151 221.569829,99.40194 C224.417929,103.111965 225.841957,107.571423 225.841957,112.780448 C225.841957,119.525948 223.415487,124.96911 218.562475,129.110098 C213.709462,133.251085 207.423126,135.321548 199.703276,135.321548 C194.681626,135.321548 190.362697,134.7688 186.746359,133.663287 C183.130022,132.557775 179.073414,130.655947 174.576414,127.957747 L174.576414,113.005297 C182.970814,119.975647 190.87792,123.46077 198.29797,123.46077 C202.007995,123.46077 205.00595,122.655069 207.291925,121.043644 C209.5779,119.432219 210.72087,117.296176 210.72087,114.635451 C210.72087,111.000376 208.734725,108.039896 204.762375,105.753921 C201.464575,103.955121 197.211227,101.800341 192.002202,99.2895156 C185.818827,96.4788906 181.200102,93.1998773 178.14589,89.4523773 C175.091677,85.7048773 173.564594,81.3578426 173.564594,76.4111426 C173.564594,69.8155426 176.01917,64.5597527 180.928395,60.6436153 C185.83762,56.7274778 192.320697,54.7694384 200.377822,54.7694384 Z"/>
    </g>
    <path stroke="#F3A9BB" stroke-width="20" d="M0,0 L305.006699,0 C316.048694,0 331.092535,6.56653434 338.603298,14.661634 L359.992142,37.71453 C369.386055,47.839289 377.001326,67.2432206 377.001326,81.0534006 L377.001326,355"/>
    <path fill="#0098D4" fill-rule="nonzero" d="M0,233.875874 L302.397035,233.875874 C313.178947,233.875874 327.261368,228.410416 335.217843,221.138329 L486.138312,37.5003428 C490.41004,33.5960538 499.673624,30 505.459135,30 L517.7545,30 L517.7545,10 L505.459135,10 C494.679562,10 480.602954,15.4644334 472.645358,22.7375447 L321.72489,206.375531 C317.454683,210.278429 308.185427,213.875874 302.397035,213.875874 L0,213.875874 L0,233.875874 Z" transform="matrix(1 0 0 -1 0 243.876)"/>
    <g transform="translate(3.324 54.321)">
      <polygon fill="#000000" points="16.037 1.017 16.037 67.684 54.149 67.684 54.149 79.545 .86 79.545 .86 1.017"/>
      <path fill="#000000" d="M102.491597,0.00490246638 C110.623672,0.00490246638 117.940556,1.68188355 124.442468,5.03589604 C130.944381,8.38990852 136.125222,13.224111 139.985147,19.5386485 C143.845072,25.8531859 145.775005,32.7765883 145.775005,40.3090633 C145.775005,47.6541632 143.891915,54.4651423 140.125677,60.7422048 C136.35944,67.0192672 131.187968,71.8909441 124.611105,75.3573816 C118.034243,78.8238191 110.623673,80.5570118 102.379173,80.5570118 C94.2470977,80.5570118 86.8552648,78.7957133 80.2034524,75.2730633 C73.5516399,71.7504133 68.3707989,66.9068422 64.6607739,60.7422048 C60.9507489,54.5775673 59.0957642,47.7665882 59.0957642,40.3090633 C59.0957642,33.1138633 60.9507489,26.3497273 64.6607739,20.0164523 C68.3707989,13.6831773 73.4860596,8.7646574 80.0067096,5.26074491 C86.5273596,1.75683243 94.0222471,0.00490246638 102.491597,0.00490246638 Z M74.7789733,40.3090633 C74.7789733,45.5180882 75.959418,50.202393 78.320343,54.3621179 C80.681268,58.5218429 83.9696499,61.7446446 88.1855874,64.0306195 C92.4015249,66.3165945 97.1701471,67.4595649 102.491597,67.4595649 C110.548722,67.4595649 117.172329,64.9300403 122.362616,59.8709154 C127.552904,54.8117904 130.148009,48.2912382 130.148009,40.3090633 C130.148009,35.1000383 128.976932,30.406365 126.634745,26.2279025 C124.292557,22.04944 120.994807,18.8172697 116.741394,16.5312948 C112.487982,14.2453198 107.700623,13.1023494 102.379173,13.1023494 C97.0577226,13.1023494 92.2703632,14.2546884 88.0169508,16.5594009 C83.7635383,18.8641134 80.4938936,22.086915 78.2079186,26.2279025 C75.9219436,30.36889 74.7789733,35.0625633 74.7789733,40.3090633 Z"/>
      <polygon fill="#000000" points="173.319 1.017 219.975 55.824 219.975 1.017 234.815 1.017 234.815 79.545 221.774 79.545 174.837 23.839 174.837 79.545 159.997 79.545 159.997 1.017"/>
      <path fill="#000000" d="M284.956459 1.0167224C293.126009 1.0167224 300.39605 2.68433488 306.7668 6.01960987 313.13755 9.35488485 318.084176 14.0391896 321.606825 20.0726645 325.129475 26.1061395 326.890774 32.8890127 326.890774 40.4214877 326.890774 48.1038627 325.120107 54.9148417 321.578719 60.8546292 318.037332 66.7944167 313.006389 71.3944039 306.485739 74.6547289 299.965089 77.9150539 292.488938 79.5451919 284.057063 79.5451919L252.072311 79.5451919 252.072311 1.0167224 284.956459 1.0167224zM283.382517 67.6844138C291.776917 67.6844138 298.512947 65.1642578 303.590809 60.1238703 308.668672 55.0834829 311.207565 48.4786132 311.207565 40.3090633 311.207565 31.8397133 308.649935 25.1505262 303.534597 20.2413012 298.41926 15.3320762 291.533332 12.8775005 282.876607 12.8775005L267.24961 12.8775005 267.24961 67.6844138 283.382517 67.6844138zM381.304202.00490246638C389.436277.00490246638 396.753161 1.68188355 403.255073 5.03589604 409.756986 8.38990852 414.937827 13.224111 418.797752 19.5386485 422.657677 25.8531859 424.58761 32.7765883 424.58761 40.3090633 424.58761 47.6541632 422.70452 54.4651423 418.938282 60.7422048 415.172045 67.0192672 410.000572 71.8909441 403.42371 75.3573816 396.846847 78.8238191 389.436277 80.5570118 381.191777 80.5570118 373.059702 80.5570118 365.667869 78.7957133 359.016057 75.2730633 352.364245 71.7504133 347.183404 66.9068422 343.473379 60.7422048 339.763354 54.5775673 337.908369 47.7665882 337.908369 40.3090633 337.908369 33.1138633 339.763354 26.3497273 343.473379 20.0164523 347.183404 13.6831773 352.298664 8.7646574 358.819314 5.26074491 365.339964 1.75683243 372.834852.00490246638 381.304202.00490246638z"/>
      <path fill="#FFFFFF" d="M353.591578,40.3090633 C353.591578,45.5180882 354.772023,50.202393 357.132948,54.3621179 C359.493873,58.5218429 362.782255,61.7446446 366.998192,64.0306195 C371.21413,66.3165945 375.982752,67.4595649 381.304202,67.4595649 C389.361327,67.4595649 395.984934,64.9300403 401.175221,59.8709154 C406.365509,54.8117904 408.960613,48.2912382 408.960613,40.3090633 C408.960613,35.1000383 407.789537,30.406365 405.44735,26.2279025 C403.105162,22.04944 399.807412,18.8172697 395.553999,16.5312948 C391.300587,14.2453198 386.513227,13.1023494 381.191777,13.1023494 C375.870327,13.1023494 371.082968,14.2546884 366.829555,16.5594009 C362.576143,18.8641134 359.306498,22.086915 357.020523,26.2279025 C354.734548,30.36889 353.591578,35.0625633 353.591578,40.3090633 Z"/>
      <polygon fill="#000000" points="452.132 1.017 498.788 55.824 498.788 1.017 513.628 1.017 513.628 79.545 500.587 79.545 453.649 23.839 453.649 79.545 438.809 79.545 438.809 1.017"/>
    </g>
  </g>
</svg>
