<?xml version="1.0" encoding="UTF-8" standalone="no"?>
<svg
   xmlns:dc="http://purl.org/dc/elements/1.1/"
   xmlns:cc="http://creativecommons.org/ns#"
   xmlns:rdf="http://www.w3.org/1999/02/22-rdf-syntax-ns#"
   xmlns:svg="http://www.w3.org/2000/svg"
   xmlns="http://www.w3.org/2000/svg"
   xml:space="preserve"
   enable-background="new 0 0 2000 2000"
   viewBox="0 0 2000 2000"
   height="2000px"
   width="2000px"
   y="0px"
   x="0px"
   id="Layer_1"
   version="1.1">
  <metadata
     id="metadata67">
    <rdf:RDF>
      <cc:Work rdf:about="">
        <dc:format>image/svg+xml</dc:format>
        <dc:type
           rdf:resource="http://purl.org/dc/dcmitype/StillImage" />
          <dc:title>Responsive Design.is</dc:title>
      </cc:Work>
    </rdf:RDF>
  </metadata>
  <title>Responsive Design.is</title>
<defs
     id="defs65" /><g
     id="g7"><g
       id="g9"><g
         id="g11"><g
           id="g13"><path
             d="m 1074.231,1090.759 c 0,9.26 -6.481,16.74 -14.512,16.74 l -145.161,0 c -8.023,0 -14.518,-7.48 -14.518,-16.74 l -471.189,0 0,31.616 c 0,18.459 42.551,23.107 60.277,23.107 l 1017.95,0 c 17.688,0 51.245,-4.648 51.245,-23.107 l 0,-31.616 -484.092,0 z m 415.698,17.901 -37.4,0 c -1.376,0 -2.492,-1.117 -2.492,-2.496 0,-1.377 1.116,-2.492 2.492,-2.492 l 37.4,0 c 1.383,0 2.505,1.115 2.505,2.492 0,1.379 -1.122,2.496 -2.505,2.496 z"
             id="path15"
             style="fill:#3a3634" /><path
             d="m 1396.336,499.51 -805.474,0 c -15.492,0 -28.055,12.561 -28.055,28.055 l 0,482.896 c 0,0.121 -0.019,0.237 -0.019,0.358 l 0,51.03 c 0,8.261 6.698,14.961 14.967,14.961 l 13.107,0 11.207,0 783.035,0 11.232,0 13.084,0 c 8.264,0 14.968,-6.7 14.968,-14.961 l 0,-12.912 c 0,-0.062 0,-0.118 0,-0.185 l 0,-521.187 c 0,-15.494 -12.552,-28.055 -28.052,-28.055 z m -402.747,13.735 c 4.985,0 9.025,4.041 9.025,9.022 0,4.985 -4.04,9.021 -9.025,9.021 -4.985,0 -9.019,-4.037 -9.019,-9.021 10e-4,-4.982 4.034,-9.022 9.019,-9.022 z m 388.413,518.687 -776.804,0 0,-488.771 776.804,0 0,488.771 z"
             id="path17"
             style="fill:#3a3634" /></g></g><path
         d="m 1259.609,568.204 -532.037,0 c -10.528,0 -19.068,8.546 -19.068,19.081 l 0,400.533 c 0,10.525 8.54,19.067 19.068,19.067 l 532.037,0 c 10.534,0 19.071,-8.542 19.071,-19.067 l 0,-400.534 c 10e-4,-10.534 -8.536,-19.08 -19.071,-19.08 z m -31.477,395.967 -471.617,0 0,-353.249 471.625,0 -0.01,353.249 z m 27.424,-163.517 c -7.09,0 -12.817,-5.749 -12.817,-12.836 0,-7.084 5.728,-12.831 12.817,-12.831 7.092,0 12.831,5.746 12.831,12.831 0,7.087 -5.74,12.836 -12.831,12.836 z"
         id="path19"
         style="fill:#3a3634" /><path
         d="m 1037.484,662.091 -87.79,0 c -11.003,0 -19.921,8.92 -19.921,19.921 l 0,211.067 c 0,11.004 8.917,19.921 19.921,19.921 l 87.79,0 c 11.004,0 19.921,-8.917 19.921,-19.921 l 0,-211.067 c 0,-11 -8.917,-19.921 -19.921,-19.921 z m -44.079,240.721 c -5.581,0 -10.09,-4.515 -10.09,-10.094 0,-5.584 4.509,-10.094 10.09,-10.094 5.575,0 10.103,4.509 10.103,10.094 0,5.579 -4.529,10.094 -10.103,10.094 z m 54.036,-36.012 -108.072,0 0,-162.593 108.072,0 0,162.593 z"
         id="path21"
         style="fill:#3a3634" /></g></g><g
     id="g23"><path
       d="m 232.369,1288.316 0,42.545 -20.847,0 0,-106.074 32.516,0 c 10.719,0 19.16,2.752 25.328,8.273 6.162,5.498 9.234,13.157 9.234,22.965 0,5.464 -1.284,10.201 -3.859,14.22 -2.568,4.015 -6.335,7.233 -11.295,9.662 5.664,1.77 9.743,4.816 12.241,9.14 2.512,4.312 3.761,9.658 3.761,16.033 l 0,7.728 c 0,2.99 0.351,6.107 1.059,9.372 0.704,3.256 1.925,5.646 3.634,7.161 l 0,1.521 -21.602,0 c -1.77,-1.521 -2.892,-4.047 -3.371,-7.586 -0.479,-3.532 -0.726,-7.084 -0.726,-10.617 l 0,-7.433 c 0,-5.353 -1.155,-9.507 -3.444,-12.469 -2.302,-2.955 -5.597,-4.44 -9.894,-4.44 l -12.735,0 z m 0,-16.136 11.593,0 c 4.502,0 7.915,-1.322 10.236,-3.941 2.315,-2.63 3.488,-6.381 3.488,-11.224 0,-4.956 -1.173,-8.886 -3.488,-11.8 -2.321,-2.898 -5.721,-4.354 -10.161,-4.354 l -11.669,0 0,31.319 z"
       id="path25"
       style="fill:#3a3634" /><path
       d="m 358.649,1284.005 -33.125,0 0,30.781 39.648,0 0,16.075 -60.578,0 0,-106.147 60.442,0 0,16.147 -39.512,0 0,27.065 33.125,0 0,16.079 z"
       id="path27"
       style="fill:#3a3634" /><path
       d="m 434.363,1303.031 c 0,-4.199 -1.044,-7.469 -3.152,-9.818 -2.093,-2.355 -6.003,-4.711 -11.702,-7.083 -10.826,-3.75 -18.896,-8.064 -24.23,-12.968 -5.332,-4.905 -7.998,-11.756 -7.998,-20.553 0,-8.727 2.997,-15.829 9.021,-21.266 6.013,-5.429 13.928,-8.143 23.73,-8.143 10.468,0 18.726,2.892 24.795,8.676 6.056,5.788 8.999,13.607 8.793,23.464 l -0.149,0.46 -20.321,0 c 0,-5.56 -1.104,-9.742 -3.307,-12.546 -2.185,-2.812 -5.566,-4.211 -10.113,-4.211 -3.938,0 -6.836,1.259 -8.676,3.793 -1.852,2.524 -2.771,5.81 -2.771,9.856 0,3.741 1.104,6.767 3.33,9.101 2.233,2.318 6.294,4.791 12.212,7.424 10.461,3.437 18.311,7.692 23.546,12.767 5.226,5.089 7.833,12.05 7.833,20.895 0,9.146 -3.064,16.356 -9.209,21.611 -6.139,5.261 -14.381,7.877 -24.748,7.877 -10.214,0 -18.875,-2.797 -26.01,-8.371 -7.132,-5.586 -10.56,-14.116 -10.296,-25.589 l 0.148,-0.46 20.309,0 c 0,6.622 1.315,11.397 3.951,14.302 2.619,2.902 6.589,4.354 11.898,4.354 4.503,0 7.804,-1.243 9.919,-3.713 2.134,-2.474 3.197,-5.768 3.197,-9.859 z"
       id="path29"
       style="fill:#3a3634" /><path
       d="m 499.631,1293.857 0,37.004 -20.92,0 0,-106.147 36.313,0 c 10.813,0 19.397,3.23 25.736,9.659 6.345,6.45 9.522,14.777 9.522,24.988 0,10.215 -3.177,18.52 -9.522,24.906 -6.339,6.398 -14.923,9.59 -25.736,9.59 l -15.393,0 z m 0,-16.075 15.393,0 c 4.642,0 8.207,-1.757 10.651,-5.267 2.458,-3.517 3.675,-7.846 3.675,-12.999 0,-5.26 -1.218,-9.678 -3.675,-13.276 -2.445,-3.584 -6.01,-5.379 -10.651,-5.379 l -15.393,0 0,36.921 z"
       id="path31"
       style="fill:#3a3634" /><path
       d="m 646.797,1290.447 c 0,12.889 -3.59,23.099 -10.776,30.633 -7.16,7.522 -16.687,11.287 -28.572,11.287 -11.882,0 -21.415,-3.765 -28.62,-11.287 -7.214,-7.534 -10.807,-17.744 -10.807,-30.633 l 0,-25.169 c 0,-12.84 3.574,-23.061 10.734,-30.667 7.142,-7.604 16.655,-11.41 28.541,-11.41 11.882,0 21.42,3.806 28.654,11.41 7.228,7.606 10.846,17.827 10.846,30.667 l 0,25.169 z M 625.95,1265.13 c 0,-8.242 -1.633,-14.587 -4.845,-19.033 -3.241,-4.446 -7.859,-6.675 -13.807,-6.675 -6.019,0 -10.56,2.229 -13.642,6.675 -3.089,4.446 -4.637,10.791 -4.637,19.026 l 0,25.324 c 0,8.293 1.573,14.654 4.712,19.107 3.114,4.445 7.7,6.672 13.718,6.672 5.968,0 10.529,-2.227 13.722,-6.672 3.187,-4.453 4.779,-10.814 4.779,-19.107 l 0,-25.317 z"
       id="path33"
       style="fill:#3a3634" /><path
       d="m 747.775,1330.861 -20.923,0 -34.422,-68.009 -0.457,0.069 0,67.939 -20.923,0 0,-106.147 20.923,0 34.433,67.935 0.447,-0.072 0,-67.862 20.923,0 0,106.147 z"
       id="path35"
       style="fill:#3a3634" /><path
       d="m 820.616,1303.031 c 0,-4.199 -1.04,-7.469 -3.152,-9.818 -2.1,-2.355 -6.006,-4.711 -11.714,-7.083 -10.814,-3.75 -18.881,-8.064 -24.215,-12.968 -5.339,-4.905 -8.003,-11.759 -8.003,-20.553 0,-8.727 3.006,-15.829 9.025,-21.259 6.012,-5.436 13.928,-8.149 23.739,-8.149 10.446,0 18.716,2.892 24.779,8.676 6.076,5.788 8.994,13.607 8.791,23.464 l -0.133,0.46 -20.333,0 c 0,-5.56 -1.104,-9.742 -3.292,-12.546 -2.201,-2.812 -5.582,-4.211 -10.122,-4.211 -3.958,0 -6.836,1.259 -8.689,3.793 -1.839,2.524 -2.771,5.81 -2.771,9.856 0,3.741 1.123,6.767 3.343,9.101 2.219,2.318 6.303,4.791 12.215,7.424 10.452,3.437 18.304,7.692 23.536,12.767 5.232,5.089 7.833,12.05 7.833,20.895 0,9.146 -3.063,16.356 -9.203,21.611 -6.133,5.261 -14.391,7.877 -24.748,7.877 -10.224,0 -18.874,-2.797 -26.009,-8.371 -7.123,-5.586 -10.56,-14.116 -10.306,-25.589 l 0.139,-0.453 20.327,0 c 0,6.615 1.313,11.391 3.945,14.295 2.632,2.905 6.596,4.354 11.904,4.354 4.49,0 7.813,-1.239 9.932,-3.713 2.117,-2.475 3.182,-5.769 3.182,-9.86 z"
       id="path37"
       style="fill:#3a3634" /><path
       d="m 887.014,1330.861 -20.999,0 0,-106.147 20.999,0 0,106.147 z"
       id="path39"
       style="fill:#3a3634" /><path
       d="m 946.904,1303.719 0.9,4.469 0.463,0.076 0.914,-4.323 18.723,-79.227 21.988,0 -30.861,106.147 -21.836,0 -30.855,-106.147 21.989,0 18.575,79.005 z"
       id="path41"
       style="fill:#3a3634" /><path
       d="m 1062.13,1284.005 -33.125,0 0,30.781 39.651,0 0,16.075 -60.581,0 0,-106.147 60.43,0 0,16.147 -39.5,0 0,27.065 33.125,0 0,16.079 z"
       id="path43"
       style="fill:#3a3634" /><path
       d="m 1108.403,1330.861 0,-106.147 33.354,0 c 11.321,0 20.65,4.145 28.015,12.435 7.357,8.286 11.035,18.928 11.035,31.92 l 0,17.584 c 0,12.999 -3.678,23.606 -11.035,31.848 -7.364,8.238 -16.693,12.361 -28.015,12.361 l -33.354,0 z m 20.917,-90 0,73.925 12.437,0 c 5.461,0 9.843,-2.622 13.191,-7.845 3.337,-5.241 5.005,-11.99 5.005,-20.289 l 0,-17.733 c 0,-8.238 -1.668,-14.977 -5.005,-20.216 -3.349,-5.226 -7.73,-7.842 -13.191,-7.842 l -12.437,0 z"
       id="path45"
       style="fill:#3a3634" /><path
       d="m 1257.422,1284.005 -33.152,0 0,30.781 39.652,0 0,16.075 -60.568,0 0,-106.147 60.435,0 0,16.147 -39.519,0 0,27.065 33.152,0 0,16.079 z"
       id="path47"
       style="fill:#3a3634" /><path
       d="m 1332.799,1303.031 c 0,-4.199 -1.034,-7.465 -3.134,-9.818 -2.099,-2.355 -6.013,-4.711 -11.726,-7.083 -10.814,-3.75 -18.888,-8.064 -24.209,-12.968 -5.347,-4.905 -8.01,-11.759 -8.01,-20.549 0,-8.733 3.006,-15.837 9.031,-21.263 6.006,-5.433 13.914,-8.149 23.719,-8.149 10.466,0 18.729,2.892 24.793,8.676 6.075,5.788 9.006,13.607 8.804,23.464 l -0.159,0.463 -20.314,0 c 0,-5.562 -1.098,-9.745 -3.298,-12.549 -2.201,-2.809 -5.568,-4.211 -10.128,-4.211 -3.938,0 -6.831,1.259 -8.689,3.793 -1.833,2.527 -2.752,5.81 -2.752,9.853 0,3.745 1.109,6.771 3.342,9.102 2.213,2.321 6.285,4.794 12.203,7.427 10.464,3.44 18.303,7.692 23.536,12.767 5.238,5.089 7.845,12.05 7.845,20.895 0,9.148 -3.07,16.356 -9.216,21.608 -6.139,5.264 -14.39,7.883 -24.747,7.883 -10.218,0 -18.881,-2.8 -26.01,-8.374 -7.129,-5.586 -10.554,-14.116 -10.299,-25.586 l 0.145,-0.456 20.321,0 c 0,6.615 1.313,11.391 3.938,14.295 2.625,2.905 6.602,4.354 11.904,4.354 4.49,0 7.814,-1.239 9.932,-3.713 2.125,-2.476 3.178,-5.77 3.178,-9.861 z"
       id="path49"
       style="fill:#3a3634" /><path
       d="m 1398.898,1330.861 -21.019,0 0,-106.147 21.019,0 0,106.147 z"
       id="path51"
       style="fill:#3a3634" /><path
       d="m 1497.735,1316.375 c -3.145,4.348 -7.63,8.101 -13.451,11.258 -5.842,3.162 -13.364,4.737 -22.554,4.737 -11.638,0 -20.999,-3.574 -28.09,-10.724 -7.109,-7.152 -10.667,-17.1 -10.667,-29.838 l 0,-28.042 c 0,-12.647 3.462,-22.569 10.395,-29.762 6.919,-7.204 16.001,-10.804 27.221,-10.804 11.715,0 20.606,2.892 26.656,8.676 6.026,5.788 8.956,13.763 8.747,23.93 l -0.146,0.443 -19.712,0 c 0,-5.608 -1.268,-9.824 -3.792,-12.655 -2.531,-2.828 -6.247,-4.253 -11.15,-4.253 -5.359,0 -9.563,2.084 -12.615,6.253 -3.076,4.174 -4.598,10.181 -4.598,18.01 l 0,28.204 c 0,7.988 1.535,14.067 4.623,18.237 3.083,4.173 7.459,6.257 13.129,6.257 4.04,0 7.211,-0.53 9.514,-1.596 2.296,-1.056 4.122,-2.419 5.492,-4.094 l 0,-20.927 -16.533,0 0,-14.178 37.532,0 0,40.868 z"
       id="path53"
       style="fill:#3a3634" /><path
       d="m 1598.559,1330.861 -20.93,0 -34.413,-68.009 -0.457,0.069 0,67.939 -20.923,0 0,-106.147 20.923,0 34.427,67.935 0.443,-0.072 0,-67.862 20.93,0 0,106.147 z"
       id="path55"
       style="fill:#3a3634" /><path
       d="m 1647.096,1330.861 -20.701,0 0,-18.425 20.701,0 0,18.425 z"
       id="path57"
       style="fill:#3a3634" /><path
       d="m 1696.224,1232.75 -20.917,0 0,-15.615 20.917,0 0,15.615 z m 0,98.111 -20.917,0 0,-78.854 20.917,0 0,78.854 z"
       id="path59"
       style="fill:#3a3634" /><path
       d="m 1755.339,1310.23 c 0,-2.321 -0.913,-4.298 -2.739,-5.95 -1.82,-1.64 -5.32,-3.644 -10.521,-6.021 -8.258,-2.937 -14.441,-6.285 -18.59,-10.046 -4.129,-3.762 -6.209,-8.584 -6.209,-14.438 0,-6.429 2.627,-11.914 7.884,-16.461 5.258,-4.542 12.241,-6.818 20.924,-6.818 9.005,0 16.185,2.35 21.575,7.049 5.378,4.696 7.941,10.621 7.693,17.746 l -0.152,0.454 -20.244,0 c 0,-3.292 -0.749,-5.943 -2.231,-7.969 -1.498,-2.016 -3.736,-3.032 -6.725,-3.032 -2.46,0 -4.56,0.786 -6.291,2.358 -1.712,1.561 -2.58,3.464 -2.58,5.68 0,2.328 0.849,4.209 2.549,5.648 1.693,1.439 5.295,3.425 10.808,5.949 8.491,2.882 14.809,6.246 18.944,10.088 4.153,3.837 6.228,8.854 6.228,15.015 0,6.717 -2.753,12.212 -8.232,16.485 -5.486,4.276 -12.723,6.403 -21.709,6.403 -9.355,0 -16.757,-2.619 -22.23,-7.883 -5.454,-5.252 -8.036,-11.191 -7.725,-17.815 l 0.153,-0.457 19.021,0 c 0.101,4.249 1.147,7.319 3.113,9.223 1.984,1.889 4.7,2.835 8.188,2.835 2.981,0 5.238,-0.724 6.787,-2.161 1.544,-1.446 2.311,-3.403 2.311,-5.882 z"
       id="path61"
       style="fill:#3a3634" /></g></svg>
