<?xml version="1.0" encoding="UTF-8" standalone="no"?>
<svg
   xmlns:dc="http://purl.org/dc/elements/1.1/"
   xmlns:cc="http://creativecommons.org/ns#"
   xmlns:rdf="http://www.w3.org/1999/02/22-rdf-syntax-ns#"
   xmlns:svg="http://www.w3.org/2000/svg"
   xmlns="http://www.w3.org/2000/svg"
   version="1.1"
   viewBox="0 0 338.7 193.8"
   data-name="Layer 1"
   id="Layer_1">
  <metadata
     id="metadata953">
    <rdf:RDF>
      <cc:Work
         rdf:about="">
        <dc:format>image/svg+xml</dc:format>
        <dc:type
           rdf:resource="http://purl.org/dc/dcmitype/StillImage" />
        <dc:title>logo--red</dc:title>
      </cc:Work>
    </rdf:RDF>
  </metadata>
  <defs
     id="defs944">
    <style
       id="style942">.cls-1{fill:#cc4e46;}</style>
  </defs>
  <title
     id="title946">logo--red</title>
  <path
     style="fill:#000000"
     id="path1519"
     d="M 0 177.38086 L 0 186.90039 C 0 192.44039 12.760078 193.83008 18.080078 193.83008 L 323.33008 193.83008 C 328.63008 193.83008 338.69922 192.44039 338.69922 186.90039 L 338.69922 177.41016 L 193.5293 177.38086 C 193.5293 180.16086 191.58969 182.38086 189.17969 182.38086 L 145.65039 182.38086 C 143.24039 182.38086 141.30078 180.14086 141.30078 177.38086 L 0 177.38086 z M 306.94922 181.25 A 0.75 0.75 0 0 1 306.98047 181.25 L 318.18945 181.25 A 0.75 0.75 0 0 1 318.18945 182.75 L 306.98047 182.75 A 0.75 0.75 0 0 1 306.94922 181.25 z " />
  <path
     style="fill:#000000"
     id="path1515"
     d="M 48.580078 0 A 8.42 8.42 0 0 0 40.169922 8.4199219 L 40.169922 153.28906 L 40.169922 153.40039 L 40.169922 168.71094 A 4.49 4.49 0 0 0 44.650391 173.19922 L 294.05078 173.19922 A 4.49 4.49 0 0 0 298.53906 168.71094 L 298.53906 8.4199219 A 8.41 8.41 0 0 0 290.13086 0 L 290.11914 0 L 48.580078 0 z M 169.34961 4.1191406 A 2.71 2.71 0 1 1 166.65039 6.8300781 A 2.71 2.71 0 0 1 169.34961 4.1191406 z M 52.849609 13.099609 L 285.84961 13.099609 L 285.84961 159.73047 L 52.849609 159.73047 L 52.849609 13.099609 z " />
  <path
     style="fill:#000000"
     id="path1509"
     d="M 97.699219 28.179688 A 5.15 5.15 0 0 0 92.550781 33.330078 L 92.550781 141.56055 A 5.15 5.15 0 0 0 97.699219 146.71094 L 241.30078 146.71094 A 5.15 5.15 0 0 0 246.44922 141.56055 L 246.44922 33.339844 A 5.15 5.15 0 0 0 241.30078 28.189453 L 241.30078 28.179688 L 97.699219 28.179688 z M 105.50977 39.730469 L 232.84961 39.730469 L 232.80078 135.17969 L 105.50977 135.17969 L 105.50977 39.730469 z M 240.03516 84.0625 A 3.47 3.47 0 0 1 243.66016 87.529297 A 3.46 3.46 0 0 1 240.19922 91 A 3.47 3.47 0 0 1 240.03516 84.0625 z " />
  <path
     style="fill:#cc4e46;fill-opacity:1"
     id="path1503"
     d="M 157.60938 53.900391 A 5.39 5.39 0 0 0 152.2207 59.279297 L 152.2207 116.2793 A 5.39 5.39 0 0 0 157.60938 121.66016 L 181.38086 121.66016 A 5.39 5.39 0 0 0 186.76953 116.2793 L 186.76953 59.279297 A 5.39 5.39 0 0 0 181.38086 53.900391 L 157.60938 53.900391 z M 154.84961 65.240234 L 184.10938 65.240234 L 184.10938 109.16016 L 184.08008 109.16992 L 154.84961 109.16992 L 154.84961 65.240234 z M 169.35742 113.44141 A 2.73 2.73 0 0 1 172.18945 116.17969 A 2.73 2.73 0 0 1 169.44922 118.90039 A 2.73 2.73 0 0 1 169.35742 113.44141 z " />
</svg>
