<svg xmlns="http://www.w3.org/2000/svg" class="lws-logo {{#type}}lws-logo--grey{{/type}}" viewBox="0 0 350 120"><title>London Web Standards logo</title><g class="lws-logo__title-group"><path d="M124.7 28.5h6.1V58h18.4v5.6h-24.5zM152.1 46.2v-.1c0-9.9 7.6-18.1 18.4-18.1 10.8 0 18.3 8.2 18.3 18v.1c0 9.9-7.6 18.1-18.4 18.1-10.8 0-18.3-8.2-18.3-18m30.2 0v-.1c0-6.8-5-12.5-11.9-12.5-7 0-11.8 5.6-11.8 12.4v.1c0 6.8 5 12.5 11.9 12.5 6.9-.1 11.8-5.6 11.8-12.4M196.2 28.5h5.7l18.7 24.3V28.5h6.1v35.1h-5.2l-19.3-25v25h-6zM235.7 28.5h13.1c11 0 18.6 7.6 18.6 17.4v.1c0 9.9-7.6 17.5-18.6 17.5h-13.1v-35zM248.8 58c7.4 0 12.2-5 12.2-11.8v-.1c0-6.9-4.8-11.9-12.2-11.9h-6.9V58h6.9zM273.3 46.2v-.1c0-9.9 7.6-18.1 18.4-18.1 10.8 0 18.3 8.2 18.3 18v.1c0 9.9-7.6 18.1-18.4 18.1-10.8 0-18.3-8.2-18.3-18m30.1 0v-.1c0-6.8-5-12.5-11.9-12.5-7 0-11.8 5.6-11.8 12.4v.1c0 6.8 5 12.5 11.9 12.5 7-.1 11.8-5.6 11.8-12.4M317.4 28.5h5.7l18.7 24.3V28.5h6.1v35.1h-5.2l-19.3-25v25h-6zM121.1 75.1h3.3l4.1 12.9 4.3-13h2.6l4.2 13 4.2-12.9h3.2l-6.1 17.5h-2.6L134 80.1l-4.3 12.5h-2.6zM150.1 75.1H163v2.7h-9.9v4.5h8.8v2.8h-8.8v4.6h10v2.8h-13zM166.7 75.1h7.8c2 0 3.5.5 4.5 1.5.8.8 1.2 1.7 1.2 2.9 0 2.1-1.2 3.2-2.5 3.9 2 .7 3.5 1.9 3.5 4.2 0 3.1-2.6 4.8-6.4 4.8h-8V75.1zm7.2 7.3c2 0 3.3-.8 3.3-2.4 0-1.4-1.1-2.2-3.1-2.2h-4.4v4.6h4.2zm.9 7.4c2.1 0 3.4-.8 3.4-2.4 0-1.5-1.2-2.3-3.6-2.3h-4.8v4.8h5zM190.9 89.9l1.8-2.2c1.7 1.4 3.3 2.3 5.5 2.3 1.9 0 3.1-.9 3.1-2.2 0-1.2-.7-1.9-3.9-2.7-3.7-.9-5.8-2-5.8-5.2 0-3 2.5-5 5.9-5 2.5 0 4.5.8 6.3 2.2l-1.6 2.3c-1.6-1.2-3.1-1.8-4.7-1.8-1.8 0-2.8.9-2.8 2.1 0 1.3.8 1.9 4.1 2.7 3.7.9 5.6 2.2 5.6 5.1 0 3.3-2.6 5.2-6.2 5.2-2.7 0-5.2-.9-7.3-2.8M211.9 77.9h-5.5v-2.8h14.1v2.8h-5.6v14.6h-3zM227.6 75h2.8l7.6 17.5h-3.2l-1.8-4.2h-8.2l-1.8 4.2h-3l7.6-17.5zm4.4 10.6l-3-7-3 7h6zM241.1 75.1h2.8l9.3 12v-12h3v17.4h-2.6l-9.5-12.4v12.4h-3zM260.7 75.1h6.5c5.5 0 9.2 3.7 9.2 8.6 0 4.9-3.8 8.7-9.2 8.7h-6.5V75.1zm6.4 14.6c3.7 0 6-2.5 6-5.9v-.1c0-3.4-2.4-5.9-6-5.9h-3.4v11.8h3.4zM285 75h2.8l7.6 17.5h-3.2l-1.8-4.2h-8.2l-1.8 4.2h-3.1L285 75zm4.4 10.6l-3-7-3 7h6zM298.5 75.1h7.7c2.2 0 3.9.6 5 1.7.9.9 1.4 2.2 1.4 3.8 0 2.9-1.7 4.6-4.1 5.3l4.7 6.6h-3.6l-4.3-6.1h-3.8v6.1h-3.1V75.1zm7.5 8.6c2.2 0 3.6-1.1 3.6-2.9v-.1c0-1.9-1.3-2.9-3.6-2.9h-4.4v5.8h4.4zM316.4 75.1h6.5c5.5 0 9.2 3.7 9.2 8.6 0 4.9-3.8 8.7-9.2 8.7h-6.5V75.1zm6.5 14.6c3.7 0 6-2.5 6-5.9v-.1c0-3.4-2.4-5.9-6-5.9h-3.4v11.8h3.4zM334.4 89.9l1.8-2.2c1.7 1.4 3.3 2.3 5.5 2.3 1.9 0 3.1-.9 3.1-2.2 0-1.2-.7-1.9-3.9-2.7-3.7-.9-5.8-2-5.8-5.2 0-3 2.5-5 5.9-5 2.5 0 4.5.8 6.3 2.2l-1.6 2.3c-1.6-1.2-3.1-1.8-4.7-1.8-1.8 0-2.8.9-2.8 2.1 0 1.3.8 1.9 4.1 2.7 3.7.9 5.6 2.2 5.6 5.1 0 3.3-2.6 5.2-6.2 5.2-2.7 0-5.2-.9-7.3-2.8"/></g><g class="lws-logo__arrows-group"><path class="lws-logo__arr1" fill="#f47421" d="M44 103.4l9.7-6.9v18.2h6.5V96.6l9 6.6-12.4-38z"/><path class="lws-logo__arr2" fill="#ee2a7b" d="M18.2 80.6l11.7 2-12.8 12.8 4.5 4.6 12.8-12.7 1.7 11 18.1-35.7z"/><path class="lws-logo__arr3" fill="#92278f" d="M20.3 57H2.1v6.4h18l-6.6 9L51.6 60 13.4 47.3z"/><path class="lws-logo__arr4" fill="#2b3990" d="M16.8 24.9l12.7 12.7-11 1.7 35.7 18.1-18-36-2 11.7-12.8-12.8z"/><path class="lws-logo__arr5" fill="#0099bd" d="M53.4 5.3v18.1l-9-6.6 12.4 38 12.7-38.2-9.7 6.9V5.3z"/><path class="lws-logo__arr6" fill="#1f8a71" d="M79.2 32.7l-1.7-11-18.1 35.7 36-18-11.7-2 12.8-12.8-4.6-4.6z"/><path class="lws-logo__arr7" fill="#bed73c" d="M62 60l38.1 12.7-6.8-9.7h18.1v-6.4h-18l6.6-9z"/><path class="lws-logo__arr8" fill="#fee110" d="M77.4 98.6l2-11.7 12.8 12.8 4.6-4.6L84 82.4l11-1.7-35.6-18.1z"/></g></svg>