<svg xmlns="http://www.w3.org/2000/svg" width="400" height="400" viewBox="0 0 105.83333 105.83333"><path fill="#22091a" fill-rule="evenodd" stroke-width=".265" d="M0 0h105.833v105.833H0z"/><path fill="#a8801a" d="M6.615 40.084H25.32v24.21H6.615z"/><path fill="#a13e17" d="M30.798 38.735h18.706V65.59H30.798z"/><path fill="#9f1833" d="M54.98 37.36h18.706v29.738H54.98z"/><path fill="#51163d" d="M79.163 42.889H97.87v18.6H79.163z"/><path fill="#dda700" d="M7.964 41.434H26.67v24.21H7.964z"/><path d="M17.86 52.6c-1.085-.45-2.038-.848-2.038-1.694 0-.741.767-1.35 1.72-1.35 1.27 0 2.196.874 2.222.874l.239.211.926-1.693-.133-.132c-.053-.053-1.164-1.165-3.254-1.165-2.143 0-3.73 1.403-3.73 3.255 0 1.958 1.64 2.699 3.121 3.334 1.138.502 2.143.926 2.143 1.852s-.82 1.349-1.64 1.349c-1.482 0-2.593-1.085-2.593-1.085l-.185-.185-1.138 1.535.133.158c.052.053 1.375 1.508 3.757 1.508 2.17 0 3.677-1.349 3.677-3.28 0-2.143-1.799-2.884-3.228-3.493z" fill="#fff"/><path fill="#c83f18" d="M32.173 40.084H50.88V66.94H32.173z"/><path d="M41.54 47.678c-3.255 0-5.821 2.54-5.821 5.768 0 3.307 2.54 5.926 5.82 5.926 3.255 0 5.795-2.592 5.795-5.926 0-3.228-2.566-5.768-5.794-5.768zm0 9.816c-2.117 0-3.757-1.773-3.757-4.048 0-2.196 1.666-3.916 3.757-3.916 2.09 0 3.757 1.72 3.757 3.916-.027 2.249-1.667 4.048-3.757 4.048z" fill="#fff"/><path fill="#c61440" d="M56.356 38.735h18.706v29.74H56.356z"/><path fill="#fff" d="M60.986 49.662h3.705v9.525h2.01v-9.525h3.705v-1.799h-9.42z"/><path fill="#711f56" d="M80.513 44.238h18.706v18.6H80.513z"/><path d="M92.26 53.155c.688-.53 1.085-1.35 1.085-2.302 0-1.826-1.323-2.99-3.387-2.99h-4.021v11.324h4.127c2.223 0 3.73-1.323 3.73-3.333 0-1.218-.608-2.223-1.534-2.7zm-2.116 4.233h-2.196V54.16h2.196c.979 0 1.64.635 1.64 1.614-.026 1.006-.635 1.614-1.64 1.614zm-.186-4.974h-2.037v-2.752h2.01c.874 0 1.377.503 1.377 1.35.026.846-.503 1.402-1.35 1.402z" fill="#fff"/></svg>