<svg xmlns="http://www.w3.org/2000/svg" viewBox="0 0 350 120"><path fill="#A8801A" d="M0 11.5h70.7V103H0z"/><path fill="#A13E17" d="M91.4 6.4h70.7v101.5H91.4z"/><path fill="#9F1833" d="M182.8 1.2h70.7v112.4h-70.7z"/><path fill="#51163D" d="M274.2 22.1h70.7v70.3h-70.7z"/><path fill="#DDA700" d="M5.1 16.6h70.7v91.5H5.1z"/><path fill="#FFF" d="M42.5 58.8c-4.1-1.7-7.7-3.2-7.7-6.4 0-2.8 2.9-5.1 6.5-5.1 4.8 0 8.3 3.3 8.4 3.3l.9.8 3.5-6.4-.5-.5c-.2-.2-4.4-4.4-12.3-4.4-8.1 0-14.1 5.3-14.1 12.3 0 7.4 6.2 10.2 11.8 12.6 4.3 1.9 8.1 3.5 8.1 7s-3.1 5.1-6.2 5.1c-5.6 0-9.8-4.1-9.8-4.1l-.7-.7-4.3 5.8.5.6c.2.2 5.2 5.7 14.2 5.7 8.2 0 13.9-5.1 13.9-12.4 0-8.1-6.8-10.9-12.2-13.2z"/><path fill="#C83F18" d="M96.6 11.5h70.7V113H96.6z"/><path fill="#FFF" d="M132 40.2c-12.3 0-22 9.6-22 21.8 0 12.5 9.6 22.4 22 22.4 12.3 0 21.9-9.8 21.9-22.4 0-12.2-9.7-21.8-21.9-21.8zm0 37.1c-8 0-14.2-6.7-14.2-15.3 0-8.3 6.3-14.8 14.2-14.8s14.2 6.5 14.2 14.8c-.1 8.5-6.3 15.3-14.2 15.3z"/><path fill="#C61440" d="M188 6.4h70.7v112.4H188z"/><path fill="#FFF" d="M205.5 40.9v6.8h14v36h7.6v-36h14v-6.8z"/><path fill="#711F56" d="M279.3 27.2H350v70.3h-70.7z"/><path fill="#FFF" d="M323.7 60.9c2.6-2 4.1-5.1 4.1-8.7 0-6.9-5-11.3-12.8-11.3h-15.2v42.8h15.6c8.4 0 14.1-5 14.1-12.6 0-4.6-2.3-8.4-5.8-10.2zm-8 16h-8.3V64.7h8.3c3.7 0 6.2 2.4 6.2 6.1-.1 3.8-2.4 6.1-6.2 6.1zm-.7-18.8h-7.7V47.7h7.6c3.3 0 5.2 1.9 5.2 5.1.1 3.2-1.9 5.3-5.1 5.3z"/></svg>