<svg xmlns="http://www.w3.org/2000/svg" viewBox="0 0 31.220833 25.399999" height="96" width="118"><path d="M9.819 25.387c11.782 0 18.225-9.761 18.225-18.225 0-.278-.006-.554-.019-.828a13.03 13.03 0 0 0 3.196-3.317c-1.148.51-2.383.853-3.679 1.009A6.426 6.426 0 0 0 30.36.482a12.836 12.836 0 0 1-4.067 1.555A6.406 6.406 0 0 0 15.376 7.88 18.188 18.188 0 0 1 2.173 1.187a6.383 6.383 0 0 0-.868 3.219 6.4 6.4 0 0 0 2.85 5.332 6.358 6.358 0 0 1-2.9-.802c-.002.027-.002.054-.002.082a6.408 6.408 0 0 0 5.14 6.28 6.418 6.418 0 0 1-2.894.11 6.413 6.413 0 0 0 5.985 4.448 12.853 12.853 0 0 1-7.956 2.742c-.517 0-1.027-.029-1.528-.088a18.135 18.135 0 0 0 9.819 2.877" fill="#569cda" stroke-width=".036"/></svg>